<?xml version="1.0" encoding="UTF-8"?><svg id="Layer_2" xmlns="http://www.w3.org/2000/svg" xmlns:xlink="http://www.w3.org/1999/xlink" viewBox="0 0 357.43 359.85"><defs><style>.cls-1{fill:url(#linear-gradient);}.cls-2{fill:url(#linear-gradient-3);}.cls-3{fill:url(#linear-gradient-4);}.cls-4{fill:url(#linear-gradient-2);}</style><linearGradient id="linear-gradient" x1="17.05" y1="186.29" x2="357.43" y2="186.29" gradientUnits="userSpaceOnUse"><stop offset="0" stop-color="#7f3f98"/><stop offset=".49" stop-color="#1c75bc"/><stop offset="1" stop-color="#006838"/></linearGradient><linearGradient id="linear-gradient-2" x1="0" y1="47.48" x2="41.51" y2="47.48" xlink:href="#linear-gradient"/><linearGradient id="linear-gradient-3" x1="48.7" y1="140.68" x2="73.75" y2="140.68" xlink:href="#linear-gradient"/><linearGradient id="linear-gradient-4" x1="81.78" y1="208.78" x2="108.78" y2="208.78" xlink:href="#linear-gradient"/></defs><g id="Layer_1-2"><g><path class="cls-1" d="m357.43,112.25c-.7.94-1.15,1.6-1.66,2.21-5.69,6.84-11.44,13.64-17.03,20.56-.84,1.04-1.41,2.71-1.31,4.02,1.01,13.44,2.45,26.85,3.24,40.3.62,10.45,2.86,20.56,5.02,30.73.18.86-.37,2.32-1.08,2.85-5.8,4.32-11.69,8.52-17.63,12.63-.71.49-2.12.57-2.92.21-3.71-1.66-7.38-3.45-10.92-5.44-.86-.48-1.58-1.88-1.67-2.91-.31-3.64-.17-7.33-.52-10.96-.12-1.24-.87-2.72-1.82-3.54-6.96-6.06-14.08-11.94-21.06-17.98-.9-.78-1.62-2.11-1.83-3.29-1.14-6.53-2.1-13.1-3.19-20.08-.87.46-1.52.7-2.05,1.1-5.17,3.91-10.31,7.87-15.5,11.76-1.35,1.01-1.81,2.09-1.65,3.81,1.95,20.71,3.8,41.43,5.72,62.14,1.15,12.43,2.43,24.84,3.53,37.27.11,1.29-.18,2.91-.91,3.94-18.05,25.61-36.19,51.16-54.31,76.73-.24.33-.51.64-1.24,1.55-.78-3.52-1.49-6.5-2.1-9.51-2.59-12.79-5.14-25.59-7.71-38.38-.72-3.59-1.59-7.15-2.12-10.76-.28-1.9-1.3-2.89-2.75-3.84-24.18-15.85-48.35-31.72-72.51-47.59-4.17-2.74-8.28-5.56-12.52-8.19-2.02-1.25-3.29-2.85-4.13-5.05-5.52-14.52-11.12-29-16.69-43.5-.22-.58-.33-1.2-.69-2.56,26.99,16.35,53.35,32.32,79.71,48.28.13-.16.27-.33.4-.49-.69-.53-1.37-1.08-2.08-1.57-30.37-20.94-60.7-41.94-91.17-62.74-3.33-2.27-4.06-5.49-5.19-8.7-4.73-13.48-9.39-26.99-14.07-40.49-.05-.14.02-.32.1-1.23,37.68,25.21,75.06,50.23,112.44,75.24.1-.1.2-.19.3-.29-.25-.3-.48-.61-.75-.88-.3-.29-.63-.54-.96-.8-25.22-19.29-50.44-38.59-75.67-57.87-16.11-12.32-32.25-24.61-48.33-36.98-1.12-.86-2.21-2.1-2.68-3.4-6.67-18.17-13.24-36.37-19.82-54.57-3.47-9.61-6.93-19.22-10.39-28.83-.24-.66-.39-1.34-.09-2.39.81.63,1.63,1.25,2.42,1.91,30.02,25.15,60.03,50.32,90.06,75.46,36.15,30.27,72.31,60.52,108.47,90.79,2.55,2.14,4.94,4.51,7.69,6.35,3.89,2.61,5.55,6.22,6.53,10.64,2.56,11.51,5.45,22.95,8.24,34.41.31,1.26.83,2.47,1.72,3.63-.4-2.96-.76-5.92-1.2-8.87-1.55-10.28-3.13-20.55-4.69-30.83-.36-2.38-.53-4.82-1.13-7.14-.31-1.19-1.24-2.32-2.14-3.23-17.93-18.07-35.9-36.1-53.85-54.15-.67-.68-1.28-1.41-2.26-2.49,4.29-1.18,8.09-2.26,11.91-3.28,12.03-3.23,24.07-6.44,36.1-9.65,11.72-3.13,23.43-6.26,35.15-9.38,6.82-1.82,13.63-3.68,20.48-5.41,1.03-.26,2.32-.22,3.3.17,13.07,5.1,26.12,10.24,39.13,15.48,3.2,1.29,6.06-.25,9-.71,8.04-1.26,16.03-2.89,24.04-4.35.22-.04.47.06,1.26.17Zm-24.25,52.53l.92-.28c-.53-4.34-1.06-8.68-1.62-13.23-3.71,2.11-3.98,2.86-2.68,6.1.8,1.99,1.55,4,2.38,5.98.22.52.66.96,1,1.43Z"/><path class="cls-4" d="m40.98,94.96c-3.93-3.7-9.23-5.6-11.31-11.66-6.54-19.08-13.58-37.99-20.43-56.96C6.17,17.82,3.08,9.32.01.81c-.05-.13.05-.31.15-.81.6.34,1.12.59,1.6.91,6.05,3.99,9.5,9.56,11.91,16.47,8.87,25.39,18.29,50.58,27.49,75.86.16.43.23.89.34,1.34l-.52.39Z"/><path class="cls-2" d="m73.75,167.4c-6.7-2.72-10.07-7.38-12.07-13.87-3.8-12.36-8.35-24.5-12.58-36.73-.29-.83-.48-1.7-.39-2.83,3.15,2.44,7.51,3.1,9.07,7.59,5.07,14.57,10.3,29.09,15.46,43.64.21.6.29,1.24.5,2.21Z"/><path class="cls-3" d="m108.78,236.22c-3.02-2.02-5.44-3.58-7.78-5.26-.57-.4-1.01-1.13-1.27-1.79-5.97-15.39-11.91-30.8-17.84-46.2-.08-.21-.04-.48-.12-1.61,3.23,2.7,7.45,3.06,8.99,6.99,5.94,15.14,11.77,30.31,17.63,45.48.19.5.18,1.08.38,2.39Z"/></g></g></svg>