<?xml version="1.0" encoding="UTF-8"?>
<svg id="Layer_2" data-name="Layer 2" xmlns="http://www.w3.org/2000/svg" xmlns:xlink="http://www.w3.org/1999/xlink" viewBox="0 0 377.51 359.81">
  <defs>
    <style>
      .cls-1 {
        fill: url(#linear-gradient);
      }

      .cls-2 {
        fill: url(#linear-gradient-3);
      }

      .cls-3 {
        fill: url(#linear-gradient-4);
      }

      .cls-4 {
        fill: url(#linear-gradient-2);
      }
    </style>
    <linearGradient id="linear-gradient" x1="-1440.89" y1="175.71" x2="-1080.42" y2="175.71" gradientTransform="translate(-1080.42 361.98) rotate(-180)" gradientUnits="userSpaceOnUse">
      <stop offset="0" stop-color="#7f3f98"/>
      <stop offset=".34" stop-color="#1c75bc"/>
      <stop offset="1" stop-color="#006838"/>
    </linearGradient>
    <linearGradient id="linear-gradient-2" x1="-1416.42" y1="314.49" x2="-1457.93" y2="314.49" gradientTransform="translate(-1080.42 361.98) rotate(-180)" gradientUnits="userSpaceOnUse">
      <stop offset="0" stop-color="#7f3f98"/>
      <stop offset="1" stop-color="#ec008c"/>
    </linearGradient>
    <linearGradient id="linear-gradient-3" x1="-1384.17" y1="221.3" x2="-1409.24" y2="221.3" xlink:href="#linear-gradient-2"/>
    <linearGradient id="linear-gradient-4" x1="-1349.14" y1="153.2" x2="-1376.15" y2="153.2" xlink:href="#linear-gradient-2"/>
  </defs>
  <g id="Layer_2-2" data-name="Layer 2">
    <g id="Layer_1-2" data-name="Layer 1-2">
      <g>
        <path class="cls-1" d="m1.34,102.07c8.01,1.47,36,13.09,44.04,14.35,2.94.46,5.79,2,9,.71,13.01-5.24,26.06-10.38,39.13-15.48.98-.38,2.27-.43,3.3-.17,6.84,1.73,13.66,3.59,20.48,5.41,11.72,3.13,23.44,6.25,35.15,9.38,12.04,3.21,24.07,6.42,36.1,9.65,3.81,1.02,7.61,2.1,11.91,3.28-.98,1.08-1.59,1.82-2.26,2.49-17.95,18.05-35.92,36.08-53.85,54.15-.9.91-1.83,2.04-2.14,3.23-.6,2.32-.77,4.75-1.13,7.14-1.56,10.28-3.14,20.55-4.69,30.83-.44,2.95-.8,5.91-1.2,8.87.89-1.17,1.41-2.38,1.72-3.63,2.79-11.46,5.67-22.9,8.24-34.41.98-4.42,2.64-8.03,6.53-10.64,2.75-1.84,5.14-4.22,7.69-6.35,36.16-30.26,72.32-60.51,108.47-90.79,30.03-25.14,60.04-50.31,90.06-75.46.79-.66,1.61-1.27,2.42-1.91.3,1.05.15,1.73-.09,2.39-3.46,9.61-6.92,19.23-10.39,28.83-6.58,18.2-13.15,36.4-19.82,54.57-.48,1.3-1.56,2.54-2.68,3.4-16.08,12.37-32.21,24.66-48.33,36.98-25.23,19.29-50.45,38.58-75.67,57.87-.33.25-.66.51-.96.8-.28.27-.5.59-.75.88.1.1.2.19.3.29,37.38-25.01,74.76-50.02,112.44-75.24.08.91.15,1.09.1,1.23-4.68,13.5-9.33,27.01-14.07,40.49-1.13,3.22-1.86,6.43-5.19,8.7-30.47,20.8-60.8,41.79-91.17,62.74-.72.49-1.39,1.05-2.08,1.57.13.16.27.33.4.49,26.36-15.97,52.72-31.93,79.71-48.28-.36,1.37-.47,1.99-.69,2.56-5.56,14.5-11.17,28.98-16.69,43.5-.84,2.21-2.11,3.8-4.13,5.05-4.24,2.62-8.35,5.45-12.52,8.19-24.17,15.87-48.33,31.75-72.51,47.59-1.45.95-2.47,1.94-2.75,3.84-.53,3.61-1.4,7.18-2.12,10.76-2.57,12.79-5.13,25.59-7.71,38.38-.61,3.01-1.32,5.99-2.1,9.51-.73-.91-1.01-1.21-1.24-1.55-18.12-25.56-36.26-51.11-54.31-76.73-.73-1.03-1.02-2.65-.91-3.94,1.1-12.43,2.38-24.84,3.53-37.27,1.92-20.71,3.77-41.43,5.72-62.14.16-1.72-.3-2.81-1.65-3.81-5.2-3.88-10.33-7.85-15.5-11.76-.53-.4-1.18-.64-2.05-1.1-1.09,6.99-2.05,13.55-3.19,20.08-.21,1.18-.93,2.51-1.83,3.29-6.98,6.04-14.09,11.92-21.06,17.98-.94.82-1.7,2.3-1.82,3.54-.34,3.64-.21,7.32-.52,10.96-.09,1.04-.81,2.43-1.67,2.91-3.54,1.99-7.21,3.77-10.92,5.44-.8.36-2.21.28-2.92-.21-5.95-4.11-11.83-8.31-17.63-12.63-.7-.52-1.26-1.99-1.08-2.85,2.16-10.16,4.4-20.27,5.02-30.73.8-13.45,2.23-26.86,3.24-40.3.1-1.32-.47-2.98-1.31-4.02-5.59-6.92-36.33-29.18-37.61-30.56-.51-.61-1.33-1.94-1.08-2.21.29-.2.91-.19,1.09-.18l.2.05Zm43.99,61.27c.83-1.98,1.58-3.99,2.38-5.98,1.31-3.23,1.03-3.99-2.68-6.1-.56,4.55-1.09,8.89-1.62,13.23l.92.28c.34-.48.78-.91,1-1.43Z"/>
        <path class="cls-4" d="m336.53,94.95c3.93-3.7,9.23-5.6,11.31-11.66,6.54-19.08,13.58-37.99,20.43-56.96,3.07-8.51,6.16-17.01,9.23-25.52.05-.13-.05-.31-.15-.81-.6.34-1.12.59-1.6.91-6.05,3.99-9.5,9.56-11.91,16.47-8.87,25.39-18.29,50.58-27.49,75.86-.16.43-.23.89-.34,1.34l.52.39v-.02Z"/>
        <path class="cls-2" d="m303.76,167.39c6.7-2.72,10.07-7.38,12.07-13.87,3.8-12.36,8.35-24.5,12.58-36.73.29-.83.48-1.7.39-2.83-3.15,2.44-7.51,3.1-9.07,7.59-5.07,14.57-10.3,29.09-15.46,43.64-.21.6-.29,1.24-.5,2.21h-.01Z"/>
        <path class="cls-3" d="m268.73,236.21c3.02-2.02,5.44-3.58,7.78-5.26.57-.4,1.01-1.13,1.27-1.79,5.97-15.39,11.91-30.8,17.84-46.2.08-.21.04-.48.12-1.61-3.23,2.7-7.45,3.06-8.99,6.99-5.94,15.14-11.77,30.31-17.63,45.48-.19.5-.18,1.08-.38,2.39h0Z"/>
      </g>
    </g>
  </g>
</svg>